<svg xmlns="http://www.w3.org/2000/svg"  viewBox="0 0 50 50" width="25px" height="25px"><path d="M41.389,16.953c-0.153,3.279-2.49,7.769-7.011,13.468c-4.673,5.952-8.628,8.929-11.863,8.929	c-2.004,0-3.701-1.813-5.084-5.438c-0.925-3.322-1.849-6.646-2.774-9.971c-1.028-3.623-2.131-5.438-3.312-5.438	c-0.258,0-1.157,0.531-2.697,1.586l-1.617-2.04c1.698-1.461,3.371-2.92,5.017-4.383c2.264-1.916,3.962-2.924,5.093-3.025	c2.676-0.253,4.323,1.54,4.94,5.376c0.667,4.139,1.131,6.714,1.389,7.721c0.77,3.434,1.621,5.148,2.547,5.148	c0.718,0,1.801-1.114,3.242-3.341c1.44-2.228,2.21-3.922,2.315-5.086c0.205-1.922-0.565-2.886-2.315-2.886	c-0.823,0-1.672,0.186-2.544,0.552c1.69-5.423,4.917-8.056,9.682-7.906C39.929,10.32,41.594,12.565,41.389,16.953z"/></svg>